Coordinates
version=1
nRows=13
nColumns=40
inDegrees=yes

Units are S.I. units (second, meters, Newtons, ...)
If the header above contains a line with 'inDegrees', this indicates whether rotational values are in degrees (yes) or radians (no).

endheader
time	pelvis_tilt	pelvis_list	pelvis_rotation	pelvis_tx	pelvis_ty	pelvis_tz	hip_flexion_r	hip_adduction_r	hip_rotation_r	knee_angle_r	knee_angle_r_beta	ankle_angle_r	subtalar_angle_r	mtp_angle_r	hip_flexion_l	hip_adduction_l	hip_rotation_l	knee_angle_l	knee_angle_l_beta	ankle_angle_l	subtalar_angle_l	mtp_angle_l	lumbar_extension	lumbar_bending	lumbar_rotation	arm_flex_r	arm_add_r	arm_rot_r	elbow_flex_r	pro_sup_r	wrist_flex_r	wrist_dev_r	arm_flex_l	arm_add_l	arm_rot_l	elbow_flex_l	pro_sup_l	wrist_flex_l	wrist_dev_l
      9.85000000	     27.04900396	    -11.84772295	    171.85210854	      0.32123056	      0.93327938	     -0.57312621	     61.99757124	     -9.70325675	     13.32490598	     37.04257361	      0.64651487	      5.62942942	      0.00000000	      0.00000000	     51.72993290	     -3.51682955	    -15.18355338	     30.73457848	      0.53641959	      5.40882406	      0.00000000	      0.00000000	    -11.27466179	    -12.66858291	      1.11187420	     27.36107052	     -0.11925023	     14.24820905	     19.75517346	      3.80476773	      0.00000000	      0.00000000	     26.48775405	    -18.98355512	     44.59310396	     24.42923776	     88.49491022	      0.00000000	      0.00000000
      9.85500000	     26.87049009	    -13.41879331	    171.17845623	      0.31901202	      0.93429815	     -0.57375561	     62.19535431	    -10.09907772	     15.16592580	     36.77657171	      0.64187226	      5.82869232	      0.00000000	      0.00000000	     50.63308989	     -2.45246239	    -16.50066073	     29.08802488	      0.50768181	      5.40799562	      0.00000000	      0.00000000	    -10.41035972	    -14.50234734	      1.71946574	     26.38635227	     -0.17383844	     14.56032339	     20.37246078	      3.95707255	      0.00000000	      0.00000000	     26.07210807	    -19.35285414	     45.30651856	     24.70185830	     88.45540190	      0.00000000	      0.00000000
      9.86000000	     26.76048389	    -13.38284486	    171.22776554	      0.31715549	      0.93529002	     -0.57373970	     61.92837466	    -10.17391305	     15.14930052	     36.78059741	      0.64194253	      5.76587969	      0.00000000	      0.00000000	     50.37932835	     -2.38146135	    -16.51356843	     29.07296369	      0.50741894	      5.32528403	      0.00000000	      0.00000000	     -9.85921687	    -14.43787840	      1.81024247	     25.96271261	     -0.17001986	     14.54640164	     20.19842065	      3.93726633	      0.00000000	      0.00000000	     25.59107165	    -19.32293725	     45.40857414	     24.61485644	     88.47538962	      0.00000000	      0.00000000
      9.86500000	     26.91326467	    -13.40560429	    171.31038244	      0.31521443	      0.93584692	     -0.57365809	     61.80751248	    -10.30790388	     14.91417278	     36.51706368	      0.63734299	      6.03495600	      0.00000000	      0.00000000	     50.13957897	     -2.21700887	    -16.61270586	     28.52450505	      0.49784653	      5.44187514	      0.00000000	      0.00000000	     -8.95772369	    -14.40141683	      2.01067942	     25.38947853	     -0.19029702	     14.51245580	     20.08651867	      3.93678349	      0.00000000	      0.00000000	     25.04830834	    -19.28750459	     45.56423175	     24.59396643	     88.48388194	      0.00000000	      0.00000000
      9.87000000	     26.81490021	    -13.38179193	    171.36639761	      0.31333416	      0.93679391	     -0.57368199	     61.55069981	    -10.38270000	     14.94095047	     36.52115525	      0.63741441	      5.96962028	      0.00000000	      0.00000000	     49.88830417	     -2.11937953	    -16.57615537	     28.48120175	      0.49709075	      5.34443065	      0.00000000	      0.00000000	     -8.38789182	    -14.35838770	      2.11135607	     24.94541442	     -0.17300438	     14.50276180	     19.93003841	      3.92067299	      0.00000000	      0.00000000	     24.58480865	    -19.26645521	     45.66972723	     24.51960842	     88.50001054	      0.00000000	      0.00000000
      9.87500000	     26.53467062	    -15.13045920	    170.45457866	      0.31085435	      0.93782740	     -0.57481917	     61.82570701	    -10.73966651	     16.93035889	     36.33697737	      0.63419990	      6.08939001	      0.00000000	      0.00000000	     48.56205067	     -0.90893674	    -17.95095466	     26.45122338	      0.46166094	      5.32999612	      0.00000000	      0.00000000	     -7.44765742	    -16.42295597	      3.09001390	     23.91002066	     -0.33515673	     15.28878749	     20.59241046	      4.12424696	      0.00000000	      0.00000000	     24.37029335	    -19.86721076	     47.45431751	     24.90420173	     88.45576457	      0.00000000	      0.00000000
      9.88000000	     26.62006378	    -15.18981715	    170.47574876	      0.30897581	      0.93846524	     -0.57491902	     61.71041944	    -10.81000026	     16.96093673	     36.17300535	      0.63133804	      6.16996105	      0.00000000	      0.00000000	     48.30763061	     -0.72908895	    -17.87954660	     25.98455753	      0.45351608	      5.34844446	      0.00000000	      0.00000000	     -6.61251607	    -16.44285520	      3.34230978	     23.37088178	     -0.34002239	     15.24908602	     20.49859114	      4.12982977	      0.00000000	      0.00000000	     23.86721664	    -19.87839949	     47.59881121	     24.90502397	     88.46742591	      0.00000000	      0.00000000
      9.88500000	     26.63479768	    -15.17882529	    170.51394324	      0.30689141	      0.93910219	     -0.57496738	     61.51090065	    -10.90759777	     16.78292992	     36.05419475	      0.62926441	      6.31859604	      0.00000000	      0.00000000	     48.05053305	     -0.63200977	    -18.00808708	     25.72712941	      0.44902312	      5.42805349	      0.00000000	      0.00000000	     -5.85663917	    -16.38367527	      3.57070588	     22.87233946	     -0.35478669	     15.26397391	     20.32270380	      4.11625682	      0.00000000	      0.00000000	     23.37574463	    -19.86270639	     47.72516427	     24.87891713	     88.47593394	      0.00000000	      0.00000000
      9.89000000	     26.29543575	    -16.36959905	    169.58188418	      0.30458347	      0.94008106	     -0.57653475	     61.56219142	    -10.91161462	     18.33904148	     35.92633357	      0.62703281	      6.32009973	      0.00000000	      0.00000000	     47.00118964	      0.02795252	    -19.23752187	     24.41621388	      0.42614332	      5.40984842	      0.00000000	      0.00000000	     -4.99539882	    -17.80205543	      4.63163202	     22.07968267	     -0.45963502	     16.05265644	     20.66399288	      4.27256664	      0.00000000	      0.00000000	     23.06537980	    -20.28097585	     48.68766821	     25.12638681	     88.43941239	      0.00000000	      0.00000000
      9.89500000	     26.34204607	    -16.36440282	    169.63621558	      0.30262947	      0.94070923	     -0.57660003	     61.38201070	    -11.01741022	     18.18386644	     35.77479093	      0.62438789	      6.47558574	      0.00000000	      0.00000000	     46.75054015	      0.16226316	    -19.26329412	     24.07955850	      0.42026758	      5.43990826	      0.00000000	      0.00000000	     -4.21728732	    -17.73383337	      4.84687690	     21.58298793	     -0.45042695	     16.04431473	     20.51382257	      4.26201375	      0.00000000	      0.00000000	     22.57482080	    -20.27371767	     48.83349563	     25.09454353	     88.46530227	      0.00000000	      0.00000000
      9.90000000	     26.45079994	    -16.37118640	    169.68038183	      0.30069931	      0.94127413	     -0.57667010	     61.23142603	    -11.12540996	     17.96101445	     35.54190807	      0.62032332	      6.62742131	      0.00000000	      0.00000000	     46.53958856	      0.28316216	    -19.36841470	     23.69673546	      0.41358606	      5.50860820	      0.00000000	      0.00000000	     -3.35656828	    -17.65801830	      5.10335041	     21.06774312	     -0.45014452	     16.05809251	     20.38396978	      4.25106427	      0.00000000	      0.00000000	     22.07552905	    -20.26912571	     48.97622539	     25.07760239	     88.47268178	      0.00000000	      0.00000000
      9.90500000	     24.78192481	    -19.09388935	    167.38699233	      0.29663067	      0.94399648	     -0.58011265	     60.82057434	    -11.43385719	     21.37932593	     35.49135726	      0.61944104	      6.79151961	      0.00000000	      0.00000000	     43.48897861	      2.22015701	    -22.13784484	     20.55979992	      0.35883620	      5.18882486	      0.00000000	      0.00000000	     -3.11713028	    -21.02315507	      7.11556002	     20.55095452	      0.01583778	     15.65515479	     20.31188802	      4.25357875	      0.00000000	      0.00000000	     21.83130550	    -20.91824654	     49.67539921	     25.40928055	     88.45318775	      0.00000000	      0.00000000
      9.91000000	     25.03121670	    -19.11440857	    167.37661609	      0.29500987	      0.94423069	     -0.58038856	     60.79328821	    -11.42353335	     21.29507494	     35.19187403	      0.61421407	      6.88894692	      0.00000000	      0.00000000	     43.41053909	      2.28539171	    -22.12195235	     20.12255300	      0.35120480	      5.23835305	      0.00000000	      0.00000000	     -2.05897130	    -20.91695033	      7.51586762	     19.98157825	      0.02167596	     15.65607043	     20.26529783	      4.24960233	      0.00000000	      0.00000000	     21.29216835	    -20.97038536	     49.77508352	     25.47044639	     88.45136861	      0.00000000	      0.00000000
